<svg id="Layer_1" data-name="Layer 1" xmlns="http://www.w3.org/2000/svg" viewBox="0 0 262.36 207.24"><defs><style>.cls-1,.cls-2{isolation:isolate;}.cls-2{font-size:70px;font-family:CaveatBrush-Regular, Caveat Brush;}.cls-2,.cls-5{fill:#fff;}.cls-3{fill:#c49669;}.cls-4{fill:none;}.cls-10,.cls-11,.cls-12,.cls-13,.cls-14,.cls-4,.cls-8,.cls-9{stroke:#000;stroke-miterlimit:10;}.cls-6{fill:#dbd3ad;}.cls-7,.cls-8{fill:#634320;}.cls-9{fill:#472018;}.cls-10{fill:#8e2e1e;}.cls-11{fill:#2d2d2d;}.cls-12{fill:#afafaf;}.cls-13{fill:#f6c700;}.cls-14{fill:#bc3b31;}</style></defs><g id="Group_156" data-name="Group 156"><g id="Group_154" data-name="Group 154"><g id="SCANEROO" class="cls-1"><text class="cls-2" transform="translate(0 186.24)">SCANEROO</text></g></g><g id="Group_294" data-name="Group 294"><g id="Group_291" data-name="Group 291"><path id="Path_589" data-name="Path 589" class="cls-3" d="M643.89,317.35l-13.06,5.78a13.63,13.63,0,0,0-8,10.5c-1.8,12.39-2.74,24.18-2.08,34.85-12.38,0-16.67,13.75-5.86,10.42-6.52,9.76-.8,17.46,5.21,9.11,3.93,11.58,7.4,14,10.42,7.82,19.61,8.57,40.28,8.9,62.21,0,3,6.2,6.49,3.76,10.42-7.82,6,8.35,11.73.65,5.21-9.11,10.81,3.33,6.52-10.42-5.86-10.42.79-12.79-.73-27.2-3.25-42.33l-19.86-8.8c-5.19-2.3-30.33-2.37-35.52,0" transform="translate(-532.28 -281.48)"/><path id="Path_590" data-name="Path 590" class="cls-4" d="M643.89,317.35l-13.06,5.78a13.63,13.63,0,0,0-8,10.5c-1.8,12.39-2.74,24.18-2.08,34.85-12.38,0-16.67,13.75-5.86,10.42-6.52,9.76-.8,17.46,5.21,9.11,3.93,11.58,7.4,14,10.42,7.82,19.61,8.57,40.28,8.9,62.21,0,3,6.2,6.49,3.76,10.42-7.82,6,8.35,11.73.65,5.21-9.11,10.81,3.33,6.52-10.42-5.86-10.42.79-12.79-.73-27.2-3.25-42.33l-19.86-8.8C674.22,315.05,649.08,315,643.89,317.35Z" transform="translate(-532.28 -281.48)"/><path id="Path_591" data-name="Path 591" class="cls-5" d="M647.47,361.63c0,2.34-3.94,4.24-8.79,4.24s-8.79-1.9-8.79-4.24,3.93-4.23,8.79-4.23,8.79,1.9,8.79,4.23" transform="translate(-532.28 -281.48)"/><ellipse id="Ellipse_142" data-name="Ellipse 142" class="cls-4" cx="106.4" cy="80.16" rx="8.79" ry="4.23"/><path id="Path_592" data-name="Path 592" class="cls-6" d="M675.47,373c0,6.47-5.54,11.72-12.37,11.72S650.73,379.5,650.73,373s5.54-11.73,12.37-11.73,12.37,5.25,12.37,11.73" transform="translate(-532.28 -281.48)"/><path id="Path_593" data-name="Path 593" class="cls-4" d="M675.47,373c0,6.47-5.54,11.72-12.37,11.72S650.73,379.5,650.73,373s5.54-11.73,12.37-11.73S675.47,366.56,675.47,373Z" transform="translate(-532.28 -281.48)"/><path id="Path_594" data-name="Path 594" d="M673.85,367.49c0,3.24-6.35,3.26-9.77,3.26s-11.07,0-11.07-3.26,6.68-6.18,10.09-6.18,10.75,2.95,10.75,6.18" transform="translate(-532.28 -281.48)"/><path id="Path_595" data-name="Path 595" class="cls-3" d="M609.73,312.71c-5.9-13-4.58-26.29,2.95-29.71s18.42,4.33,24.32,17.32c4,8.8,6.92,17.62,3.26,22.82-.65.92-2.51,1.53-4.94,2.64-1.5.68-5.93,5.13-6.11,5-5.81-3.66-14.76-7.69-19.48-18.09" transform="translate(-532.28 -281.48)"/><path id="Path_596" data-name="Path 596" class="cls-4" d="M609.73,312.71c-5.9-13-4.58-26.29,2.95-29.71s18.42,4.33,24.32,17.32c4,8.8,6.92,17.62,3.26,22.82-.65.92-2.51,1.53-4.94,2.64-1.5.68-5.93,5.13-6.11,5C623.4,327.14,614.45,323.11,609.73,312.71Z" transform="translate(-532.28 -281.48)"/><path id="Path_597" data-name="Path 597" class="cls-3" d="M712.93,315.8c9.06-12.36,10.6-26.63,3.43-31.88s-20.31.51-29.37,12.86c-6.13,8.37-11.14,17-8.44,23.27.48,1.11,2.3,2.16,4.62,3.86,1.42,1,5.1,6.7,5.31,6.62,6.91-2.57,17.2-4.84,24.45-14.73" transform="translate(-532.28 -281.48)"/><path id="Path_598" data-name="Path 598" class="cls-4" d="M712.93,315.8c9.06-12.36,10.6-26.63,3.43-31.88s-20.31.51-29.37,12.86c-6.13,8.37-11.14,17-8.44,23.27.48,1.11,2.3,2.16,4.62,3.86,1.42,1,5.1,6.7,5.31,6.62C695.39,328,705.68,325.69,712.93,315.8Z" transform="translate(-532.28 -281.48)"/><path id="Path_599" data-name="Path 599" class="cls-7" d="M611.05,313.61c-5.58-12.27-4.33-24.84,2.79-28.07s17.4,4.1,23,16.36c3.77,8.32,6.53,16.65,3.08,21.55-.62.88-2.38,1.45-4.67,2.5-1.42.64-5.6,4.85-5.77,4.74-5.49-3.46-13.94-7.26-18.4-17.08" transform="translate(-532.28 -281.48)"/><path id="Path_600" data-name="Path 600" class="cls-4" d="M611.05,313.61c-5.58-12.27-4.33-24.84,2.79-28.07s17.4,4.1,23,16.36c3.77,8.32,6.53,16.65,3.08,21.55-.62.88-2.38,1.45-4.67,2.5-1.42.64-5.6,4.85-5.77,4.74C624,327.23,615.51,323.43,611.05,313.61Z" transform="translate(-532.28 -281.48)"/><path id="Path_601" data-name="Path 601" class="cls-7" d="M711,316.61c8.44-11.51,9.87-24.8,3.19-29.7s-18.91.48-27.35,12c-5.71,7.79-10.37,15.83-7.86,21.66.45,1,2.15,2,4.3,3.6,1.33,1,4.75,6.24,5,6.16,6.44-2.39,16-4.5,22.78-13.71" transform="translate(-532.28 -281.48)"/><path id="Path_602" data-name="Path 602" class="cls-4" d="M711,316.61c8.44-11.51,9.87-24.8,3.19-29.7s-18.91.48-27.35,12c-5.71,7.79-10.37,15.83-7.86,21.66.45,1,2.15,2,4.3,3.6,1.33,1,4.75,6.24,5,6.16C694.64,327.93,704.22,325.82,711,316.61Z" transform="translate(-532.28 -281.48)"/><path id="Path_603" data-name="Path 603" d="M642.91,361.31a3.6,3.6,0,1,1-3.58-3.91,3.75,3.75,0,0,1,3.58,3.91" transform="translate(-532.28 -281.48)"/><path id="Path_604" data-name="Path 604" class="cls-5" d="M679.38,361.63c0,2.34,3.94,4.24,8.79,4.24S697,364,697,361.63s-3.93-4.23-8.79-4.23-8.79,1.9-8.79,4.23" transform="translate(-532.28 -281.48)"/><ellipse id="Ellipse_143" data-name="Ellipse 143" class="cls-4" cx="155.89" cy="80.16" rx="8.79" ry="4.23"/><path id="Path_605" data-name="Path 605" d="M683.94,361.31a3.6,3.6,0,1,0,3.58-3.91,3.75,3.75,0,0,0-3.58,3.91" transform="translate(-532.28 -281.48)"/><path id="Path_606" data-name="Path 606" class="cls-5" d="M643.56,360.33c0,.54-.58,1-1.3,1s-1.3-.44-1.3-1,.59-1,1.3-1,1.3.44,1.3,1" transform="translate(-532.28 -281.48)"/><path id="Path_607" data-name="Path 607" class="cls-5" d="M686.22,360c0,.54-.58,1-1.3,1s-1.3-.43-1.3-1,.58-1,1.3-1,1.3.44,1.3,1" transform="translate(-532.28 -281.48)"/><path id="Path_608" data-name="Path 608" class="cls-8" d="M680.77,347.29c.17-1,1.88-2.26,2.25-2.46a6.16,6.16,0,0,1,2.76-.69,9.76,9.76,0,0,1,5.47,1.79l1.83,1.19a41.81,41.81,0,0,1,3.57,2.5.24.24,0,0,1,.12.21.25.25,0,0,1-.24.24h-.06c-2.17-.51-5.41-1.81-7.6-2.14-2.8-.48-4.63.72-7.44.25a.7.7,0,0,1-.66-.88Z" transform="translate(-532.28 -281.48)"/><path id="Path_609" data-name="Path 609" class="cls-8" d="M646.58,347.29c-.17-1-1.88-2.26-2.25-2.46a6.12,6.12,0,0,0-2.75-.69,9.76,9.76,0,0,0-5.48,1.79l-1.83,1.19a41.81,41.81,0,0,0-3.57,2.5.27.27,0,0,0-.12.21.25.25,0,0,0,.24.24h.06c2.17-.51,5.41-1.81,7.6-2.14,2.8-.48,4.63.72,7.44.25a.74.74,0,0,0,.49-.22A.76.76,0,0,0,646.58,347.29Z" transform="translate(-532.28 -281.48)"/><path id="Path_610" data-name="Path 610" class="cls-3" d="M665.2,317.15c5.54-4,.43-7.78-6.06-3.45,2.22-7.18-6.91-4.33-6.91,3.89" transform="translate(-532.28 -281.48)"/><path id="Path_611" data-name="Path 611" class="cls-4" d="M665.2,317.15c5.54-4,.43-7.78-6.06-3.45,2.22-7.18-6.91-4.33-6.91,3.89" transform="translate(-532.28 -281.48)"/><path id="Path_612" data-name="Path 612" class="cls-9" d="M656.77,379.11c-.79-1.05.45-3,1.66-2.09,2.53,1.89,7.88,2.08,10.55,1.21.71-.23,1.15.73.82,1.28a9.35,9.35,0,0,1-2.66,2.73,6.7,6.7,0,0,1-9-1.29Z" transform="translate(-532.28 -281.48)"/><path id="Path_613" data-name="Path 613" class="cls-10" d="M662.52,380.25a9.06,9.06,0,0,0-4.15,1,6.73,6.73,0,0,0,8.77,1c.19-.13.36-.27.53-.4A8.56,8.56,0,0,0,662.52,380.25Z" transform="translate(-532.28 -281.48)"/></g><g id="Group_293" data-name="Group 293"><path id="Rectangle_71" data-name="Rectangle 71" class="cls-11" d="M683.61,350.14h3.48a1.74,1.74,0,0,1,1.74,1.74h0a1.74,1.74,0,0,1-1.74,1.74h-3.48a1.74,1.74,0,0,1-1.74-1.74h0a1.74,1.74,0,0,1,1.74-1.74Z" transform="translate(-532.28 -281.48)"/><path id="Rectangle_72" data-name="Rectangle 72" class="cls-12" d="M681.52,351.88h33.16a4.29,4.29,0,0,1,4.29,4.29h0V373.1a4.29,4.29,0,0,1-4.29,4.29H681.52a4.29,4.29,0,0,1-4.29-4.29h0V356.17a4.29,4.29,0,0,1,4.29-4.29Z" transform="translate(-532.28 -281.48)"/><g id="Group_292" data-name="Group 292"><rect id="Rectangle_73" data-name="Rectangle 73" class="cls-11" x="148.43" y="72.8" width="11.6" height="3.48" rx="1.74"/><rect id="Rectangle_74" data-name="Rectangle 74" class="cls-13" x="150.75" y="72.8" width="6.96" height="3.48" rx="1.74"/></g><path id="Path_614" data-name="Path 614" class="cls-14" d="M695.76,353.77a.69.69,0,0,1-1,1,.69.69,0,0,1,1-1Z" transform="translate(-532.28 -281.48)"/><path id="Path_361" data-name="Path 361" d="M704.46,368.54a4,4,0,1,1,4.06-4,4,4,0,0,1-4.06,4Zm-.72-6.45a.94.94,0,1,0,.93,1h0a.94.94,0,0,0-.93-.94Zm1.87,3.52a.47.47,0,0,0-.48.46h0a.48.48,0,0,0,.48.48.49.49,0,0,0,.48-.48h0a.47.47,0,0,0-.45-.47h0Z" transform="translate(-532.28 -281.48)"/><path id="Path_362" data-name="Path 362" d="M711.16,365.39l1.46,1c.45.31.9.63,1.36.93a.2.2,0,0,1,.1.26h0a10.07,10.07,0,0,1-6.25,6.4h-.07l.12-1.36c.09-.76.17-1.53.26-2.29a.3.3,0,0,1,.1-.2A7,7,0,0,0,711.16,365.39Z" transform="translate(-532.28 -281.48)"/><path id="Path_363" data-name="Path 363" d="M697.73,363.39l-2.89-2.07a10.19,10.19,0,0,1,6.26-6.39c0,.39-.07.75-.1,1.1-.07.72-.13,1.43-.2,2.15a5.51,5.51,0,0,1-.06.57.41.41,0,0,1-.16.21,6.57,6.57,0,0,0-2.4,3C698,362.43,697.88,362.9,697.73,363.39Z" transform="translate(-532.28 -281.48)"/><path id="Path_364" data-name="Path 364" d="M711,356.81l-3.42,1.55a.3.3,0,0,1-.23,0,6.71,6.71,0,0,0-2.61-.62,6.83,6.83,0,0,0-2.64.41c0-.55.1-1.1.16-1.64s.12-1,.16-1.57c0-.21.07-.35.32-.37.72,0,1.44-.15,2.15-.12a9.88,9.88,0,0,1,5,1.57C710.22,356.26,710.58,356.53,711,356.81Z" transform="translate(-532.28 -281.48)"/><path id="Path_365" data-name="Path 365" d="M706.63,370.49l-.27,3.55a10.14,10.14,0,0,1-8.71-2l1-.48,1.94-.94a4.9,4.9,0,0,1,.52-.24.33.33,0,0,1,.26,0,6.6,6.6,0,0,0,3.82.49C705.67,370.77,706.14,370.62,706.63,370.49Z" transform="translate(-532.28 -281.48)"/><path id="Path_366" data-name="Path 366" d="M694.12,362.6l3.1,2.11a.37.37,0,0,1,.12.2,6.82,6.82,0,0,0,.82,2.55,7.07,7.07,0,0,0,1.73,2l-1.48.72-1.43.67c-.19.1-.34.13-.48-.08a19.19,19.19,0,0,1-1.22-1.77A9.81,9.81,0,0,1,694,364C694.05,363.53,694.09,363.09,694.12,362.6Z" transform="translate(-532.28 -281.48)"/><path id="Path_367" data-name="Path 367" d="M708.33,359l1.58-.77,1.49-.72a.19.19,0,0,1,.27.05h0a10.08,10.08,0,0,1,2.44,8.6.43.43,0,0,1,0,.07l-1.12-.79-1.86-1.36a.35.35,0,0,1-.12-.19A7,7,0,0,0,708.33,359Z" transform="translate(-532.28 -281.48)"/></g></g></g></svg>