<svg id="Layer_1" data-name="Layer 1" xmlns="http://www.w3.org/2000/svg" viewBox="0 0 200 200"><defs><style>.cls-1{fill:#c49669;}.cls-2{fill:none;}.cls-2,.cls-6,.cls-7,.cls-8{stroke:#000;stroke-miterlimit:10;}.cls-3{fill:#fff;}.cls-4{fill:#dbd3ad;}.cls-5,.cls-6{fill:#634320;}.cls-7{fill:#472018;}.cls-8{fill:#8e2e1e;}</style></defs><title>scaneroo_child</title><g id="Group_156" data-name="Group 156"><g id="Group_294" data-name="Group 294"><g id="Group_291" data-name="Group 291"><path id="Path_589" data-name="Path 589" class="cls-1" d="M86.34,82.67l-9.11,4A9.53,9.53,0,0,0,71.64,94a121.18,121.18,0,0,0-1.45,24.33c-8.64,0-11.63,9.59-4.09,7.27-4.55,6.81-.56,12.19,3.64,6.36,2.74,8.08,5.16,9.77,7.27,5.46,13.69,6,28.11,6.21,43.42,0,2.1,4.32,4.53,2.62,7.27-5.46,4.19,5.83,8.19.45,3.64-6.36,7.55,2.32,4.55-7.27-4.09-7.27.55-8.93-.51-19-2.27-29.55l-13.86-6.14C107.5,81.06,90,81,86.33,82.67"/><path id="Path_590" data-name="Path 590" class="cls-2" d="M86.34,82.67l-9.11,4A9.53,9.53,0,0,0,71.64,94a121.18,121.18,0,0,0-1.45,24.33c-8.64,0-11.63,9.59-4.09,7.27-4.55,6.81-.56,12.19,3.64,6.36,2.74,8.08,5.16,9.77,7.27,5.46,13.69,6,28.11,6.21,43.42,0,2.1,4.32,4.53,2.62,7.27-5.46,4.19,5.83,8.19.45,3.64-6.36,7.55,2.32,4.55-7.27-4.09-7.27.55-8.93-.51-19-2.27-29.55l-13.86-6.14C107.51,81.06,90,81,86.34,82.67Z"/><path id="Path_591" data-name="Path 591" class="cls-3" d="M88.84,113.58c0,1.63-2.75,3-6.13,3s-6.14-1.33-6.14-3,2.74-3,6.14-3,6.13,1.33,6.13,3"/><ellipse id="Ellipse_142" data-name="Ellipse 142" class="cls-2" cx="82.71" cy="113.58" rx="6.14" ry="2.95"/><path id="Path_592" data-name="Path 592" class="cls-4" d="M108.38,121.51a8.64,8.64,0,1,1-8.63-8.19,8.41,8.41,0,0,1,8.63,8.19"/><path id="Path_593" data-name="Path 593" class="cls-2" d="M108.38,121.51a8.64,8.64,0,1,1-8.63-8.19A8.41,8.41,0,0,1,108.38,121.51Z"/><path id="Path_594" data-name="Path 594" d="M107.25,117.67c0,2.26-4.43,2.27-6.82,2.27s-7.72,0-7.72-2.27,4.66-4.32,7-4.32,7.5,2.06,7.5,4.32"/><path id="Path_595" data-name="Path 595" class="cls-1" d="M62.5,79.43c-4.12-9.07-3.2-18.35,2.06-20.74s12.86,3,17,12.09c2.8,6.15,4.83,12.3,2.28,15.93-.45.64-1.75,1.07-3.45,1.84-1,.48-4.14,3.58-4.26,3.49C72,89.49,65.79,86.68,62.5,79.42"/><path id="Path_596" data-name="Path 596" class="cls-2" d="M62.5,79.43c-4.12-9.07-3.2-18.35,2.06-20.74s12.86,3,17,12.09c2.8,6.15,4.83,12.3,2.28,15.93-.45.64-1.75,1.07-3.45,1.84-1,.48-4.14,3.58-4.26,3.49C72,89.5,65.79,86.69,62.5,79.43Z"/><path id="Path_597" data-name="Path 597" class="cls-1" d="M134.53,81.59c6.32-8.63,7.4-18.59,2.39-22.25s-14.17.35-20.5,9c-4.27,5.84-7.77,11.87-5.89,16.24.34.78,1.61,1.51,3.23,2.7,1,.7,3.56,4.67,3.7,4.62,4.83-1.8,12-3.38,17.07-10.28"/><path id="Path_598" data-name="Path 598" class="cls-2" d="M134.53,81.59c6.32-8.63,7.4-18.59,2.39-22.25s-14.17.35-20.5,9c-4.27,5.84-7.77,11.87-5.89,16.24.34.78,1.61,1.51,3.23,2.7,1,.7,3.56,4.67,3.7,4.62C122.29,90.1,129.47,88.49,134.53,81.59Z"/><path id="Path_599" data-name="Path 599" class="cls-5" d="M63.42,80.06c-3.89-8.56-3-17.34,2-19.59s12.14,2.86,16,11.42c2.63,5.8,4.56,11.62,2.15,15-.43.61-1.66,1-3.26,1.74-1,.45-3.91,3.39-4,3.31-3.83-2.41-9.73-5.07-12.84-11.92"/><path id="Path_600" data-name="Path 600" class="cls-2" d="M63.42,80.06c-3.89-8.56-3-17.34,2-19.59s12.14,2.86,16,11.42c2.63,5.8,4.56,11.62,2.15,15-.43.61-1.66,1-3.26,1.74-1,.45-3.91,3.39-4,3.31C72.46,89.57,66.53,86.91,63.42,80.06Z"/><path id="Path_601" data-name="Path 601" class="cls-5" d="M133.18,82.15c5.89-8,6.89-17.31,2.23-20.73s-13.2.34-19.09,8.38c-4,5.44-7.24,11-5.49,15.12.32.69,1.5,1.39,3,2.51.92.7,3.31,4.36,3.49,4.3,4.49-1.67,11.16-3.14,15.9-9.57"/><path id="Path_602" data-name="Path 602" class="cls-2" d="M133.18,82.15c5.89-8,6.89-17.31,2.23-20.73s-13.2.34-19.09,8.38c-4,5.44-7.24,11-5.49,15.12.32.69,1.5,1.39,3,2.51.92.7,3.31,4.36,3.49,4.3C121.76,90.05,128.45,88.58,133.18,82.15Z"/><path id="Path_603" data-name="Path 603" d="M85.66,113.35a2.51,2.51,0,1,1-2.5-2.73,2.63,2.63,0,0,1,2.5,2.73"/><path id="Path_604" data-name="Path 604" class="cls-3" d="M111.11,113.58c0,1.63,2.75,3,6.14,3s6.16-1.31,6.16-3-2.74-3-6.13-3-6.14,1.33-6.14,3"/><ellipse id="Ellipse_143" data-name="Ellipse 143" class="cls-2" cx="117.25" cy="113.58" rx="6.14" ry="2.95"/><path id="Path_605" data-name="Path 605" d="M114.3,113.35a2.51,2.51,0,1,0,2.49-2.73,2.61,2.61,0,0,0-2.49,2.73"/><path id="Path_606" data-name="Path 606" class="cls-3" d="M86.11,112.67a.83.83,0,0,1-.91.7.72.72,0,1,1,0-1.4.83.83,0,0,1,.91.7"/><path id="Path_607" data-name="Path 607" class="cls-3" d="M115.89,112.44a.84.84,0,0,1-.91.7c-.5,0-.91-.3-.91-.7s.41-.7.91-.7a.83.83,0,0,1,.91.7"/><path id="Path_608" data-name="Path 608" class="cls-6" d="M112.08,103.57c.12-.7,1.32-1.58,1.57-1.72a4.34,4.34,0,0,1,1.93-.48,6.8,6.8,0,0,1,3.82,1.25l1.28.83q1.29.81,2.49,1.74a.18.18,0,0,1,.08.15.18.18,0,0,1-.17.17h0c-1.51-.36-3.77-1.27-5.3-1.5-2-.33-3.23.51-5.2.18a.52.52,0,0,1-.46-.62Z"/><path id="Path_609" data-name="Path 609" class="cls-6" d="M88.22,103.57c-.12-.7-1.31-1.58-1.57-1.72a4.26,4.26,0,0,0-1.92-.48,6.8,6.8,0,0,0-3.82,1.25l-1.28.83q-1.29.81-2.49,1.74a.24.24,0,0,0-.09.15.19.19,0,0,0,.17.17h0c1.52-.36,3.78-1.27,5.31-1.5,2-.33,3.23.51,5.19.18a.5.5,0,0,0,.34-.16A.51.51,0,0,0,88.22,103.57Z"/><path id="Path_610" data-name="Path 610" class="cls-1" d="M101.22,82.53c3.86-2.79.3-5.43-4.23-2.41,1.55-5-4.83-3-4.83,2.72"/><path id="Path_611" data-name="Path 611" class="cls-2" d="M101.22,82.53c3.86-2.79.3-5.43-4.23-2.41,1.55-5-4.83-3-4.83,2.72"/><path id="Path_612" data-name="Path 612" class="cls-7" d="M95.33,125.78c-.55-.74.32-2.1,1.16-1.46,1.77,1.32,5.5,1.45,7.36.84.5-.16.81.51.58.9a6.6,6.6,0,0,1-1.86,1.9,4.68,4.68,0,0,1-6.28-.9Z"/><path id="Path_613" data-name="Path 613" class="cls-8" d="M99.35,126.57a6.36,6.36,0,0,0-2.9.7,4.71,4.71,0,0,0,6.12.7l.37-.28A6,6,0,0,0,99.35,126.57Z"/></g></g></g></svg>