<svg id="Layer_1" data-name="Layer 1" xmlns="http://www.w3.org/2000/svg" viewBox="0 0 31.78 26"><defs><style>.cls-1{fill:#fff;}</style></defs><path id="photo" class="cls-1" d="M693.33,377h-.57a1.36,1.36,0,0,1-1.3-.86l-1.74-3.32a2.72,2.72,0,0,0-2.6-1.59h-7.94a3,3,0,0,0-2.6,1.59L675,376.13a1.37,1.37,0,0,1-1.3.86h-.58a5.82,5.82,0,0,0-5.78,5.78v8.67a5.82,5.82,0,0,0,5.78,5.78h20.22a5.81,5.81,0,0,0,5.78-5.78v-8.67A5.81,5.81,0,0,0,693.33,377Zm-10.11,14.45a5.78,5.78,0,1,1,5.78-5.78h0A5.8,5.8,0,0,1,683.22,391.44Z" transform="translate(-667.33 -371.21)"/></svg>