<svg id="Layer_1" data-name="Layer 1" xmlns="http://www.w3.org/2000/svg" viewBox="0 0 200 200"><defs><style>.cls-1{fill:#c49669;}.cls-2{fill:none;}.cls-2,.cls-6,.cls-7,.cls-8{stroke:#000;stroke-miterlimit:10;}.cls-3{fill:#fff;}.cls-4{fill:#dbd3ad;}.cls-5,.cls-6{fill:#634320;}.cls-7{fill:#472018;}.cls-8{fill:#8e2e1e;}</style></defs><title>scaneroo_parents</title><g id="Group_156" data-name="Group 156"><g id="Group_294" data-name="Group 294"><g id="Group_291" data-name="Group 291"><path id="Path_589" data-name="Path 589" class="cls-1" d="M114,73.39l-9.12,4a9.49,9.49,0,0,0-5.58,7.33,120.31,120.31,0,0,0-1.45,24.32c-8.64,0-11.64,9.6-4.09,7.27-4.55,6.82-.56,12.19,3.63,6.36,2.75,8.08,5.17,9.77,7.28,5.46,13.68,6,28.11,6.21,43.42,0,2.09,4.33,4.53,2.62,7.27-5.46,4.19,5.83,8.19.46,3.64-6.36,7.54,2.33,4.55-7.27-4.09-7.27.55-8.93-.51-19-2.27-29.54l-13.86-6.15c-3.63-1.6-21.17-1.65-24.8,0"/><path id="Path_590" data-name="Path 590" class="cls-2" d="M114,73.39l-9.12,4a9.49,9.49,0,0,0-5.58,7.33,120.31,120.31,0,0,0-1.45,24.32c-8.64,0-11.64,9.6-4.09,7.27-4.55,6.82-.56,12.19,3.63,6.36,2.75,8.08,5.17,9.77,7.28,5.46,13.68,6,28.11,6.21,43.42,0,2.09,4.33,4.53,2.62,7.27-5.46,4.19,5.83,8.19.46,3.64-6.36,7.54,2.33,4.55-7.27-4.09-7.27.55-8.93-.51-19-2.27-29.54l-13.86-6.15C135.12,71.79,117.57,71.75,114,73.39Z"/><path id="Path_591" data-name="Path 591" class="cls-3" d="M116.45,104.3c0,1.63-2.75,3-6.14,3s-6.13-1.33-6.13-3,2.74-3,6.13-3,6.14,1.32,6.14,3"/><ellipse id="Ellipse_142" data-name="Ellipse 142" class="cls-2" cx="110.31" cy="104.31" rx="6.14" ry="2.95"/><path id="Path_592" data-name="Path 592" class="cls-4" d="M136,112.24a8.65,8.65,0,1,1-8.63-8.19,8.42,8.42,0,0,1,8.63,8.19"/><path id="Path_593" data-name="Path 593" class="cls-2" d="M136,112.24a8.65,8.65,0,1,1-8.63-8.19A8.42,8.42,0,0,1,136,112.24Z"/><path id="Path_594" data-name="Path 594" d="M134.86,108.39c0,2.26-4.43,2.27-6.82,2.27s-7.73,0-7.73-2.27,4.67-4.31,7-4.31,7.5,2,7.5,4.31"/><path id="Path_595" data-name="Path 595" class="cls-1" d="M90.11,70.15C86,61.08,86.91,51.8,92.17,49.42s12.85,3,17,12.09c2.79,6.14,4.83,12.29,2.28,15.92-.46.65-1.76,1.07-3.45,1.85-1,.47-4.14,3.58-4.27,3.49-4-2.56-10.3-5.37-13.59-12.63"/><path id="Path_596" data-name="Path 596" class="cls-2" d="M90.11,70.15C86,61.08,86.91,51.8,92.17,49.42s12.85,3,17,12.09c2.79,6.14,4.83,12.29,2.28,15.92-.46.65-1.76,1.07-3.45,1.85-1,.47-4.14,3.58-4.27,3.49C99.65,80.23,93.4,77.41,90.11,70.15Z"/><path id="Path_597" data-name="Path 597" class="cls-1" d="M162.14,72.31c6.32-8.63,7.4-18.59,2.39-22.25s-14.18.36-20.5,9c-4.28,5.84-7.77,11.86-5.89,16.24.34.77,1.61,1.51,3.23,2.69,1,.7,3.55,4.68,3.7,4.62,4.82-1.79,12-3.38,17.07-10.28"/><path id="Path_598" data-name="Path 598" class="cls-2" d="M162.14,72.31c6.32-8.63,7.4-18.59,2.39-22.25s-14.18.36-20.5,9c-4.28,5.84-7.77,11.86-5.89,16.24.34.77,1.61,1.51,3.23,2.69,1,.7,3.55,4.68,3.7,4.62C149.89,80.83,157.08,79.21,162.14,72.31Z"/><path id="Path_599" data-name="Path 599" class="cls-5" d="M91,70.78c-3.9-8.56-3-17.33,1.94-19.59S105.12,54.05,109,62.61c2.63,5.81,4.56,11.62,2.15,15-.43.61-1.66,1-3.26,1.75-1,.44-3.91,3.38-4,3.3-3.83-2.41-9.73-5.06-12.84-11.92"/><path id="Path_600" data-name="Path 600" class="cls-2" d="M91,70.78c-3.9-8.56-3-17.33,1.94-19.59S105.12,54.05,109,62.61c2.63,5.81,4.56,11.62,2.15,15-.43.61-1.66,1-3.26,1.75-1,.44-3.91,3.38-4,3.3C100.07,80.29,94.14,77.64,91,70.78Z"/><path id="Path_601" data-name="Path 601" class="cls-5" d="M160.79,72.88c5.89-8,6.89-17.31,2.23-20.73s-13.2.33-19.09,8.37c-4,5.44-7.24,11-5.49,15.12.31.7,1.5,1.4,3,2.51.93.7,3.32,4.36,3.49,4.3,4.5-1.67,11.17-3.14,15.9-9.57"/><path id="Path_602" data-name="Path 602" class="cls-2" d="M160.79,72.88c5.89-8,6.89-17.31,2.23-20.73s-13.2.33-19.09,8.37c-4,5.44-7.24,11-5.49,15.12.31.7,1.5,1.4,3,2.51.93.7,3.32,4.36,3.49,4.3C149.37,80.78,156.06,79.3,160.79,72.88Z"/><path id="Path_603" data-name="Path 603" d="M113.26,104.08a2.51,2.51,0,1,1-2.49-2.73,2.6,2.6,0,0,1,2.49,2.73"/><path id="Path_604" data-name="Path 604" class="cls-3" d="M138.72,104.3c0,1.63,2.75,3,6.13,3s6.17-1.31,6.17-3-2.74-3-6.14-3-6.13,1.32-6.13,3"/><ellipse id="Ellipse_143" data-name="Ellipse 143" class="cls-2" cx="144.85" cy="104.31" rx="6.14" ry="2.95"/><path id="Path_605" data-name="Path 605" d="M141.9,104.08a2.51,2.51,0,1,0,2.5-2.73,2.62,2.62,0,0,0-2.5,2.73"/><path id="Path_606" data-name="Path 606" class="cls-3" d="M113.72,103.39a.94.94,0,1,1-.91-.7.83.83,0,0,1,.91.7"/><path id="Path_607" data-name="Path 607" class="cls-3" d="M143.49,103.16a.82.82,0,0,1-.9.7c-.51,0-.91-.3-.91-.7s.4-.7.91-.7a.81.81,0,0,1,.9.7"/><path id="Path_608" data-name="Path 608" class="cls-6" d="M139.69,94.29c.12-.7,1.31-1.58,1.57-1.72a4.34,4.34,0,0,1,1.93-.48A6.82,6.82,0,0,1,147,93.34l1.28.83a28.57,28.57,0,0,1,2.49,1.75.15.15,0,0,1,.09.14.18.18,0,0,1-.17.17h0c-1.52-.36-3.78-1.26-5.31-1.49-2-.34-3.23.5-5.19.17a.49.49,0,0,1-.48-.5.36.36,0,0,1,0-.11Z"/><path id="Path_609" data-name="Path 609" class="cls-6" d="M115.83,94.29c-.12-.7-1.32-1.58-1.57-1.72a4.3,4.3,0,0,0-1.92-.48,6.81,6.81,0,0,0-3.83,1.25l-1.28.83a28.57,28.57,0,0,0-2.49,1.75.16.16,0,0,0-.08.14.18.18,0,0,0,.17.17h0c1.51-.36,3.77-1.26,5.3-1.49,2-.34,3.23.5,5.2.17a.5.5,0,0,0,.34-.15A.57.57,0,0,0,115.83,94.29Z"/><path id="Path_610" data-name="Path 610" class="cls-1" d="M128.82,73.25c3.87-2.79.3-5.43-4.23-2.4,1.55-5-4.82-3-4.82,2.71"/><path id="Path_611" data-name="Path 611" class="cls-2" d="M128.82,73.25c3.87-2.79.3-5.43-4.23-2.4,1.55-5-4.82-3-4.82,2.71"/><path id="Path_612" data-name="Path 612" class="cls-7" d="M122.94,116.5c-.55-.73.31-2.09,1.16-1.46,1.76,1.32,5.5,1.45,7.36.85.5-.17.8.51.57.89a6.57,6.57,0,0,1-1.85,1.9,4.67,4.67,0,0,1-6.29-.9Z"/><path id="Path_613" data-name="Path 613" class="cls-8" d="M127,117.3a6.16,6.16,0,0,0-2.89.69,4.68,4.68,0,0,0,6.12.7l.37-.28A6,6,0,0,0,127,117.3Z"/></g></g><path d="M127.39,114.55c-10.12,3.67-14.65.15-16.5-2.42a.58.58,0,0,1,.69-.88c1.36.57,3.4.74,5.83-1.27,3.9-3.22,8.68-.86,9.89-.17a.58.58,0,0,0,.57,0c1.21-.69,6-3,9.89.17,2.44,2,4.48,1.84,5.84,1.27a.58.58,0,0,1,.68.88c-1.85,2.57-6.38,6.09-16.5,2.42A.53.53,0,0,0,127.39,114.55Z"/></g><g id="Group_156-2" data-name="Group 156"><g id="Group_294-2" data-name="Group 294"><g id="Group_291-2" data-name="Group 291"><path id="Path_589-2" data-name="Path 589" class="cls-1" d="M58.74,92l-9.12,4A9.5,9.5,0,0,0,44,103.31a120.44,120.44,0,0,0-1.46,24.32c-8.64,0-11.63,9.6-4.09,7.28-4.55,6.81-.55,12.18,3.64,6.35,2.74,8.09,5.17,9.78,7.27,5.46,13.69,6,28.12,6.21,43.42,0,2.1,4.33,4.53,2.63,7.28-5.46,4.19,5.83,8.18.46,3.63-6.35,7.55,2.32,4.55-7.28-4.09-7.28.56-8.92-.51-19-2.26-29.54L83.51,92c-3.62-1.61-21.17-1.66-24.79,0"/><path id="Path_590-2" data-name="Path 590" class="cls-2" d="M58.74,92l-9.12,4A9.5,9.5,0,0,0,44,103.31a120.44,120.44,0,0,0-1.46,24.32c-8.64,0-11.63,9.6-4.09,7.28-4.55,6.81-.55,12.18,3.64,6.35,2.74,8.09,5.17,9.78,7.27,5.46,13.69,6,28.12,6.21,43.42,0,2.1,4.33,4.53,2.63,7.28-5.46,4.19,5.83,8.18.46,3.63-6.35,7.55,2.32,4.55-7.28-4.09-7.28.56-8.92-.51-19-2.26-29.54L83.51,92C79.91,90.34,62.36,90.31,58.74,92Z"/><path id="Path_591-2" data-name="Path 591" class="cls-3" d="M61.23,122.85c0,1.64-2.75,3-6.13,3s-6.14-1.32-6.14-3,2.75-2.95,6.14-2.95,6.13,1.33,6.13,2.95"/><ellipse id="Ellipse_142-2" data-name="Ellipse 142" class="cls-2" cx="55.1" cy="122.86" rx="6.14" ry="2.95"/><path id="Path_592-2" data-name="Path 592" class="cls-4" d="M80.78,130.79a8.65,8.65,0,1,1-8.64-8.19,8.43,8.43,0,0,1,8.64,8.19"/><path id="Path_593-2" data-name="Path 593" class="cls-2" d="M80.78,130.79a8.65,8.65,0,1,1-8.64-8.19A8.43,8.43,0,0,1,80.78,130.79Z"/><path id="Path_594-2" data-name="Path 594" d="M79.65,126.94c0,2.26-4.44,2.28-6.82,2.28s-7.73,0-7.73-2.28,4.66-4.31,7-4.31,7.51,2.06,7.51,4.31"/><path id="Path_595-2" data-name="Path 595" class="cls-1" d="M34.89,88.71C30.78,79.63,31.7,70.36,37,68s12.86,3,17,12.09C56.72,86.2,58.76,92.36,56.2,96c-.45.64-1.75,1.07-3.45,1.84-1,.47-4.13,3.58-4.26,3.49-4.06-2.55-10.3-5.37-13.6-12.63"/><path id="Path_596-2" data-name="Path 596" class="cls-2" d="M34.89,88.71C30.78,79.63,31.7,70.36,37,68s12.86,3,17,12.09C56.72,86.2,58.76,92.36,56.2,96c-.45.64-1.75,1.07-3.45,1.84-1,.47-4.13,3.58-4.26,3.49C44.43,98.78,38.19,96,34.89,88.71Z"/><path id="Path_597-2" data-name="Path 597" class="cls-1" d="M106.92,90.86c6.33-8.62,7.4-18.58,2.4-22.25s-14.18.36-20.5,9C84.54,83.43,81,89.45,82.93,93.83c.33.78,1.6,1.51,3.22,2.69,1,.7,3.56,4.68,3.71,4.63,4.82-1.8,12-3.38,17.06-10.29"/><path id="Path_598-2" data-name="Path 598" class="cls-2" d="M106.92,90.86c6.33-8.62,7.4-18.58,2.4-22.25s-14.18.36-20.5,9C84.54,83.43,81,89.45,82.93,93.83c.33.78,1.6,1.51,3.22,2.69,1,.7,3.56,4.68,3.71,4.63C94.68,99.38,101.86,97.77,106.92,90.86Z"/><path id="Path_599-2" data-name="Path 599" class="cls-5" d="M35.81,89.34c-3.89-8.57-3-17.34,1.95-19.6s12.15,2.87,16.06,11.42C56.45,87,58.37,92.78,56,96.2c-.43.62-1.66,1-3.25,1.75-1,.45-3.91,3.38-4,3.31C44.85,98.84,39,96.19,35.84,89.34"/><path id="Path_600-2" data-name="Path 600" class="cls-2" d="M35.81,89.34c-3.89-8.57-3-17.34,1.95-19.6s12.15,2.87,16.06,11.42C56.45,87,58.37,92.78,56,96.2c-.43.62-1.66,1-3.25,1.75-1,.45-3.91,3.38-4,3.31C44.85,98.84,38.93,96.19,35.81,89.34Z"/><path id="Path_601-2" data-name="Path 601" class="cls-5" d="M105.58,91.43c5.89-8,6.89-17.31,2.22-20.73S94.6,71,88.71,79.08c-4,5.43-7.23,11-5.48,15.11.31.7,1.5,1.4,3,2.52.93.69,3.31,4.35,3.49,4.3,4.49-1.67,11.17-3.15,15.9-9.57"/><path id="Path_602-2" data-name="Path 602" class="cls-2" d="M105.58,91.43c5.89-8,6.89-17.31,2.22-20.73S94.6,71,88.71,79.08c-4,5.43-7.23,11-5.48,15.11.31.7,1.5,1.4,3,2.52.93.69,3.31,4.35,3.49,4.3C94.16,99.33,100.84,97.86,105.58,91.43Z"/><path id="Path_603-2" data-name="Path 603" d="M58.05,122.63a2.51,2.51,0,1,1-2.5-2.73,2.62,2.62,0,0,1,2.5,2.73"/><path id="Path_604-2" data-name="Path 604" class="cls-3" d="M83.51,122.85c0,1.64,2.75,3,6.13,3s6.17-1.3,6.17-3-2.75-2.95-6.14-2.95-6.14,1.33-6.14,2.95"/><ellipse id="Ellipse_143-2" data-name="Ellipse 143" class="cls-2" cx="89.64" cy="122.86" rx="6.14" ry="2.95"/><path id="Path_605-2" data-name="Path 605" d="M86.69,122.63a2.51,2.51,0,1,0,2.5-2.73,2.62,2.62,0,0,0-2.5,2.73"/><path id="Path_606-2" data-name="Path 606" class="cls-3" d="M58.51,121.94a.83.83,0,0,1-.91.7c-.5,0-.91-.3-.91-.7s.41-.69.91-.69.91.3.91.69"/><path id="Path_607-2" data-name="Path 607" class="cls-3" d="M88.28,121.71a.83.83,0,0,1-.91.7.81.81,0,0,1-.9-.7c0-.39.4-.69.9-.69s.91.3.91.69"/><path id="Path_608-2" data-name="Path 608" class="cls-6" d="M84.48,112.84c.12-.69,1.31-1.57,1.57-1.71a4.27,4.27,0,0,1,1.92-.49,6.88,6.88,0,0,1,3.82,1.25l1.28.83a28.57,28.57,0,0,1,2.49,1.75.16.16,0,0,1,.08.15.16.16,0,0,1-.16.16h0c-1.52-.35-3.78-1.26-5.31-1.49-1.95-.34-3.23.5-5.19.17a.48.48,0,0,1-.48-.5.52.52,0,0,1,0-.11Z"/><path id="Path_609-2" data-name="Path 609" class="cls-6" d="M60.61,112.84c-.12-.69-1.31-1.57-1.57-1.71a4.27,4.27,0,0,0-1.92-.49,6.88,6.88,0,0,0-3.82,1.25l-1.28.83a28.57,28.57,0,0,0-2.49,1.75.18.18,0,0,0-.08.15.16.16,0,0,0,.16.16h0c1.51-.35,3.77-1.26,5.3-1.49,1.95-.34,3.23.5,5.19.17a.49.49,0,0,0,.34-.15A.51.51,0,0,0,60.61,112.84Z"/><path id="Path_610-2" data-name="Path 610" class="cls-1" d="M73.61,91.81c3.87-2.8.3-5.43-4.23-2.41,1.55-5-4.82-3-4.82,2.71"/><path id="Path_611-2" data-name="Path 611" class="cls-2" d="M73.61,91.81c3.87-2.8.3-5.43-4.23-2.41,1.55-5-4.82-3-4.82,2.71"/><path id="Path_612-2" data-name="Path 612" class="cls-7" d="M67.73,135.05c-.56-.73.31-2.09,1.15-1.46,1.77,1.32,5.5,1.46,7.37.85.49-.16.8.51.57.89A6.39,6.39,0,0,1,75,137.24a4.68,4.68,0,0,1-6.28-.9Z"/><path id="Path_613-2" data-name="Path 613" class="cls-8" d="M71.74,135.85a6.36,6.36,0,0,0-2.9.7,4.69,4.69,0,0,0,6.12.69,3.58,3.58,0,0,0,.37-.28A6,6,0,0,0,71.74,135.85Z"/><path d="M50,121.75a3.11,3.11,0,0,1-1.1-.4,4.21,4.21,0,0,1-.85-.64A5.38,5.38,0,0,1,46.86,119a5.13,5.13,0,0,0,1.44,1.28,3.19,3.19,0,0,0,.84.35,2.21,2.21,0,0,0,.81.09Z"/><path d="M51.49,121a3.25,3.25,0,0,1-1.09-.39,4.32,4.32,0,0,1-.86-.65,5.18,5.18,0,0,1-1.13-1.68,5.13,5.13,0,0,0,1.44,1.28,3.43,3.43,0,0,0,.84.36,2.35,2.35,0,0,0,.8.08Z"/><path d="M52.7,120.63a3,3,0,0,1-1-.6,4.85,4.85,0,0,1-.72-.79,5.66,5.66,0,0,1-.79-1.87,5.28,5.28,0,0,0,1.17,1.54,3.69,3.69,0,0,0,.76.5,2.18,2.18,0,0,0,.77.24Z"/><path d="M94.82,120.75a2.19,2.19,0,0,0,.81-.09,3.06,3.06,0,0,0,.84-.35A5.13,5.13,0,0,0,97.91,119a5.18,5.18,0,0,1-1.13,1.68,4.58,4.58,0,0,1-.86.64,3,3,0,0,1-1.1.4Z"/><path d="M93.28,120a2.41,2.41,0,0,0,.81-.08,3.61,3.61,0,0,0,.84-.36,5.13,5.13,0,0,0,1.44-1.28,5.38,5.38,0,0,1-1.14,1.68,4.25,4.25,0,0,1-.85.65,3.31,3.31,0,0,1-1.1.39Z"/><path d="M91.88,119.65a2.29,2.29,0,0,0,.78-.24,4,4,0,0,0,.76-.5,5.25,5.25,0,0,0,1.16-1.54,5.46,5.46,0,0,1-.79,1.87,4.79,4.79,0,0,1-.71.79,3.06,3.06,0,0,1-1,.6Z"/></g></g></g></svg>