<svg id="Layer_1" data-name="Layer 1" xmlns="http://www.w3.org/2000/svg" viewBox="0 0 40.25 26"><defs><style>.cls-1{fill:#fff;}.cls-2{fill:#ffbc00;}</style></defs><path id="Path_10" data-name="Path 10" class="cls-1" d="M689.65,396.13H676.79V375.52a3.22,3.22,0,0,1,3.17-3.27h6.52a3.22,3.22,0,0,1,3.17,3.27v20.61Z" transform="translate(-663.1 -371.19)"/><g id="Group_7" data-name="Group 7"><path id="Path_11" data-name="Path 11" class="cls-1" d="M690.67,397.19h-14.9V375.51a4.26,4.26,0,0,1,4.2-4.32h6.51a4.26,4.26,0,0,1,4.2,4.32Zm-12.86-2.1h10.82V375.51a2.19,2.19,0,0,0-2.15-2.21H680a2.19,2.19,0,0,0-2.15,2.21v19.58Z" transform="translate(-663.1 -371.19)"/><path id="Path_12" data-name="Path 12" class="cls-1" d="M703.34,397.19h-14.9V379.34h10.71a4.29,4.29,0,0,1,4.2,4.36H701.3a2.2,2.2,0,0,0-2.15-2.24h-8.67v13.6H701.3v-5.71h2Z" transform="translate(-663.1 -371.19)"/><path id="Path_13" data-name="Path 13" class="cls-1" d="M678,397.19H663.1V381.57a4.28,4.28,0,0,1,4.2-4.36H678v20Zm-12.86-2.12H676V379.34H667.3a2.2,2.2,0,0,0-2.16,2.23Z" transform="translate(-663.1 -371.19)"/><path id="Path_14" data-name="Path 14" class="cls-2" d="M685.72,385.15v1.65h-4.78v-1.65h1.57v-2.93a1,1,0,0,1-.31.28,3.59,3.59,0,0,1-.47.27,3.05,3.05,0,0,1-.53.2,1.85,1.85,0,0,1-.48.07v-1.7a1.21,1.21,0,0,0,.46-.12,6,6,0,0,0,.56-.3,4.29,4.29,0,0,0,.5-.37,1,1,0,0,0,.27-.3h1.8v4.9h1.41Z" transform="translate(-663.1 -371.19)"/><path id="Path_15" data-name="Path 15" class="cls-1" d="M667.8,392.32a5.22,5.22,0,0,1,.08-1,2.34,2.34,0,0,1,.26-.77,2.66,2.66,0,0,1,.51-.65,5.24,5.24,0,0,1,.81-.59l.86-.49a5.14,5.14,0,0,0,.55-.35,1.27,1.27,0,0,0,.3-.27.4.4,0,0,0,.08-.28.63.63,0,0,0-.22-.51.84.84,0,0,0-.63-.2,1.36,1.36,0,0,0-.8.23,3.89,3.89,0,0,0-.67.61l-1.12-1.35a2.55,2.55,0,0,1,.47-.4A4.37,4.37,0,0,1,669,386a4.58,4.58,0,0,1,.82-.25,4.88,4.88,0,0,1,.93-.09,2.77,2.77,0,0,1,1.83.54,1.81,1.81,0,0,1,.64,1.46,2,2,0,0,1-.12.68,1.86,1.86,0,0,1-.3.53,2,2,0,0,1-.42.41,5,5,0,0,1-.47.33l-.4.24-.46.28c-.15.1-.29.19-.42.29a1.87,1.87,0,0,0-.3.26h3v1.65H667.8Z" transform="translate(-663.1 -371.19)"/><path id="Path_16" data-name="Path 16" class="cls-1" d="M697,388.75a1.59,1.59,0,0,1,1,.62,2,2,0,0,1,.28.54,2.45,2.45,0,0,1,.1.66,1.89,1.89,0,0,1-.19.85,1.68,1.68,0,0,1-.53.65,2.39,2.39,0,0,1-.83.41,3.34,3.34,0,0,1-1.09.15,3,3,0,0,1-2.31-.9l.84-1.15a1.74,1.74,0,0,0,.6.43,2,2,0,0,0,.8.14c.73,0,1.1-.27,1.1-.83a.81.81,0,0,0-.33-.69,1.75,1.75,0,0,0-1-.23h-.29v-1.16h.32a1.43,1.43,0,0,0,.85-.24.73.73,0,0,0,.3-.61.6.6,0,0,0-.22-.5,1,1,0,0,0-.59-.17,1.26,1.26,0,0,0-.73.2,1.73,1.73,0,0,0-.55.56l-1-1.17a1.94,1.94,0,0,1,.41-.4,3.15,3.15,0,0,1,.57-.31,6,6,0,0,1,.69-.2,4.88,4.88,0,0,1,.76-.07,3.28,3.28,0,0,1,.94.13,2.17,2.17,0,0,1,.73.36,1.62,1.62,0,0,1,.47.57,1.53,1.53,0,0,1,.16.73,1.8,1.8,0,0,1-.35,1.07,1.71,1.71,0,0,1-.39.37A1.37,1.37,0,0,1,697,388.75Z" transform="translate(-663.1 -371.19)"/></g></svg>